<svg width="512" height="512" viewBox="0 0 512 512" fill="none" xmlns="http://www.w3.org/2000/svg">
<g clip-path="url(#clip0)">
<path d="M256 0C181.561 0 121 60.561 121 135C121 209.439 181.561 270 256 270C330.439 270 391 209.439 391 135C391 60.561 330.439 0 256 0ZM256 240C198.103 240 151 192.897 151 135C151 77.103 198.103 30 256 30C313.897 30 361 77.103 361 135C361 192.897 313.897 240 256 240Z" fill="black"/>
<path d="M297.833 301H214.166C144.964 301 76.669 332.951 31 401.458V512H481V401.458C435.397 333.05 367.121 301 297.833 301ZM451.001 482H451L451.001 573H61V410.637C96.031 360.683 152.952 331 214.167 331H297.834C359.049 331 415.969 360.683 451.001 410.637V482Z" fill="black"/>
</g>
<defs>
<clipPath id="clip0">
<rect width="512" height="512" fill="white"/>
</clipPath>
</defs>
</svg>
